# xmcd
# Track frame offsets:
# 150
# 20826
# 36291
# 50054
# 71330
# 97685
# 113475
# 125694
# 138081
# 154388
# 168561
# 187522
#
# Disc length: 2665 seconds
# Revision: 0
# Processed by: cddbd v1.4PL0 Copyright (c) Steve Scherf et al.
# Submitted via: VisiTrax 2.9.5.181 - For more info visit www.synapsa.com
#
DISCID=990a670c
DTITLE=Michael Roach - Good News Blues
DYEAR=2003
DGENRE=Blues
TTITLE0=Pleadin insanity
TTITLE1=The Ole Folks song
TTITLE2=Bricks in my pillow
TTITLE3=Trouble in mind
TTITLE4=Good News Blues
TTITLE5=Keep your hands off
TTITLE6=The acorn
TTITLE7=God don't like it
TTITLE8=Vote for the Wino
TTITLE9=Jump back, Honey, jump back
TTITLE10=Jesus gonna make up my dying bed
TTITLE11=Alberta
EXTD=Featuring Ian Briggs on Harmonica
EXTT0=
EXTT1=
EXTT2=
EXTT3=
EXTT4=
EXTT5=
EXTT6=
EXTT7=
EXTT8=
EXTT9=
EXTT10=
EXTT11=
PLAYORDER=
